<?xml version="1.0" encoding="UTF-8"?>
<svg version="1.1" xmlns="http://www.w3.org/2000/svg" width="48" height="48">
<path d="M0 0 C0.185625 1.155 0.37125 2.31 0.5625 3.5 C1.85146766 8.8468288 5.20502112 12.18472711 9 16 C9.45375 14.865625 9.9075 13.73125 10.375 12.5625 C12 9 12 9 14 8 C17.0625 7.875 17.0625 7.875 20 8 C22.01712519 10.01712519 21.18790636 14.09952196 21.203125 16.8671875 C21.20882507 17.65771515 21.21452515 18.4482428 21.22039795 19.26272583 C21.22986208 20.93897151 21.23638752 22.61523592 21.24023438 24.29150391 C21.24993357 26.85742683 21.28093994 29.42254677 21.3125 31.98828125 C21.31903043 33.61457856 21.32428074 35.24088162 21.328125 36.8671875 C21.3404718 37.63602264 21.3528186 38.40485779 21.36553955 39.19699097 C21.34331244 44.50949348 21.34331244 44.50949348 19.60717773 46.98999023 C16.58136305 48.89152378 13.47425524 48.17086501 10 48 C10 46.865625 10 45.73125 10 44.5625 C9.32856497 38.60484634 5.09952049 35.03415228 1 31 C0.649375 32.134375 0.29875 33.26875 -0.0625 34.4375 C-0.875 36.37109375 -0.875 36.37109375 -2 38 C-7.76404494 39.61797753 -7.76404494 39.61797753 -11 38 C-11.09900135 33.23118124 -11.17152928 28.4629627 -11.21972656 23.69335938 C-11.23982144 22.07150857 -11.26710254 20.44973003 -11.30175781 18.828125 C-11.3503727 16.4946102 -11.37298889 14.16205443 -11.390625 11.828125 C-11.41127014 11.10506165 -11.43191528 10.38199829 -11.45318604 9.63702393 C-11.4547026 6.22161411 -11.23573329 4.32575691 -9.20996094 1.52636719 C-6.10954357 -0.61501697 -3.67378415 -0.28259878 0 0 Z " fill="#FF9213" transform="translate(19,0)"/>
<path d="M0 0 C6.99538852 0.11222548 6.99538852 0.11222548 9.57861328 2.39501953 C10.99998092 4.2360242 12.30023426 6.10894804 13.5625 8.0625 C15.96737554 11.79319797 15.96737554 11.79319797 19 15 C22.55639963 15.47493455 24.77649656 15.61175172 28 14 C28.08097324 16.27024968 28.13917704 18.54132075 28.1875 20.8125 C28.23970703 22.70935547 28.23970703 22.70935547 28.29296875 24.64453125 C28 28 28 28 26.75 29.9375 C23.59994482 31.8500335 20.60411126 31.17725137 17 31 C17.020625 29.88625 17.04125 28.7725 17.0625 27.625 C16.41044487 22.18801087 13.03780515 19.33079831 9.36328125 15.52734375 C5.17423973 11.04749274 1.2076466 6.12057255 0 0 Z " fill="#FFBD39" transform="translate(12,17)"/>
<path d="M0 0 C1.65 0.33 3.3 0.66 5 1 C5.05787784 4.62493334 5.0935542 8.24974857 5.125 11.875 C5.14175781 12.90753906 5.15851562 13.94007812 5.17578125 15.00390625 C5.18222656 15.99003906 5.18867187 16.97617187 5.1953125 17.9921875 C5.20578613 18.90339355 5.21625977 19.81459961 5.22705078 20.75341797 C5 23 5 23 3 25 C-0.125 25.8125 -0.125 25.8125 -4 25 C-7.08855134 21.59981104 -9.49359298 17.83739558 -12 14 C-12.66 13.34 -13.32 12.68 -14 12 C-14 11.01 -14 10.02 -14 9 C-11.11424181 9.39803561 -10.17810487 9.79009069 -8.25 12.0625 C-7.8375 12.701875 -7.425 13.34125 -7 14 C-4.53199953 12.84826645 -2.95216435 11.95216435 -1 10 C-0.53837573 7.56747339 -0.53837573 7.56747339 -0.375 4.875 C-0.30023438 3.96492187 -0.22546875 3.05484375 -0.1484375 2.1171875 C-0.09945312 1.41851562 -0.05046875 0.71984375 0 0 Z " fill="#FF8701" transform="translate(35,8)"/>
<path d="M0 0 C5.4049088 1.80163627 8.20218814 7.23528097 11 12 C11.76754321 14.83635172 11.61415398 16.05206091 11 19 C9 22 9 22 5.5 22.75 C2 23 2 23 0 22 C0 14.74 0 7.48 0 0 Z " fill="#FF7700" transform="translate(8,16)"/>
<path d="M0 0 C3.22141262 1.38962897 5.0349867 2.983302 7.3125 5.625 C10.08303375 8.50301135 10.64734039 8.95374956 14.8125 9.5 C17.88720102 9.18273435 17.88720102 9.18273435 20 8 C20.08131463 9.43655854 20.13933559 10.8744483 20.1875 12.3125 C20.23970703 13.51326172 20.23970703 13.51326172 20.29296875 14.73828125 C20 17 20 17 18.75 18.78125 C15.66322536 20.93096805 12.66205194 20.18010091 9 20 C9 18.865625 9 17.73125 9 16.5625 C8.41305486 11.32657665 5.33283304 8.57302402 1.71484375 4.98046875 C0 3 0 3 0 0 Z " fill="#FD6B01" transform="translate(20,28)"/>
<path d="M0 0 C0.66 0 1.32 0 2 0 C3.43581474 1.61457079 4.80144783 3.29219075 6.125 5 C6.84945313 5.928125 7.57390625 6.85625 8.3203125 7.8125 C8.87460937 8.534375 9.42890625 9.25625 10 10 C10.4125 8.865625 10.825 7.73125 11.25 6.5625 C13 3 13 3 15.109375 2.27734375 C16.04523437 2.14005859 16.04523437 2.14005859 17 2 C17.76681614 10.77578475 17.76681614 10.77578475 15.88671875 13.77734375 C14.5 15.125 14.5 15.125 12 17 C9 16 9 16 7.625 14 C5.56171094 11.46056731 4.14442524 11.4964882 1 11 C-0.20272819 8.59454362 -0.10071472 7.05003047 -0.0625 4.375 C-0.05347656 3.55773437 -0.04445313 2.74046875 -0.03515625 1.8984375 C-0.02355469 1.27195312 -0.01195313 0.64546875 0 0 Z " fill="#FF9A1C" transform="translate(18,6)"/>
<path d="M0 0 C3.25543229 0.34879632 4.01873107 1.02133261 6.25 3.5625 C6.8275 4.366875 7.405 5.17125 8 6 C9.65 5.34 11.3 4.68 13 4 C14.26237731 6.52475462 14.09856404 8.31200466 14.0625 11.125 C14.05347656 12.03507812 14.04445313 12.94515625 14.03515625 13.8828125 C14.02355469 14.58148438 14.01195312 15.28015625 14 16 C10.85216783 15.69055209 9.41371301 15.4785344 7.3046875 13.0390625 C6.83289063 12.24242187 6.36109375 11.44578125 5.875 10.625 C3.88203163 7.28641025 3.88203163 7.28641025 1.3203125 4.3984375 C0 3 0 3 0 0 Z " fill="#FF5301" transform="translate(21,17)"/>
<path d="M0 0 C0.99 0.33 1.98 0.66 3 1 C3 8.26 3 15.52 3 23 C2.34 23 1.68 23 1 23 C-0.2263757 20.54724859 -0.11415314 18.9494219 -0.09765625 16.2109375 C-0.09443359 15.26992188 -0.09121094 14.32890625 -0.08789062 13.359375 C-0.07951172 12.37453125 -0.07113281 11.3896875 -0.0625 10.375 C-0.05798828 9.38242187 -0.05347656 8.38984375 -0.04882812 7.3671875 C-0.03702145 4.9113984 -0.020554 2.45572896 0 0 Z " fill="#FF5500" transform="translate(37,8)"/>
<path d="M0 0 C0.29036649 3.38115651 0.44908891 6.62919149 0 10 C-2.5 12.625 -2.5 12.625 -5 14 C-6.19754817 10.40735548 -6.33094958 7.77282526 -6 4 C-2.92307692 0 -2.92307692 0 0 0 Z " fill="#FFB613" transform="translate(35,8)"/>
<path d="M0 0 C3.18726347 1.38788934 5.11621984 2.99461733 7.4375 5.5625 C10.15035366 8.38059367 11.9223453 9.87643471 16 10 C12.74545117 12.16969922 11.77654349 12.57705127 8 12 C5.76171875 10.13671875 5.76171875 10.13671875 3.6875 7.6875 C2.99011719 6.88699219 2.29273438 6.08648437 1.57421875 5.26171875 C0 3 0 3 0 0 Z " fill="#FE710E" transform="translate(20,28)"/>
<path d="M0 0 C0 3.96 0 7.92 0 12 C-4.875 7.375 -4.875 7.375 -6 4 C-2.25 0 -2.25 0 0 0 Z " fill="#FF5300" transform="translate(14,0)"/>
<path d="M0 0 C0.99 0 1.98 0 3 0 C3 5.94 3 11.88 3 18 C2.01 17.34 1.02 16.68 0 16 C-0.22107787 13.2114711 -0.28107535 10.65346819 -0.1875 7.875 C-0.17396484 7.12089844 -0.16042969 6.36679688 -0.14648438 5.58984375 C-0.11109985 3.72625873 -0.05729167 1.86304022 0 0 Z " fill="#FF6900" transform="translate(16,0)"/>
<path d="M0 0 C2.475 0.495 2.475 0.495 5 1 C5 3.31 5 5.62 5 8 C3.35 8 1.7 8 0 8 C0 5.36 0 2.72 0 0 Z " fill="#F03B00" transform="translate(29,40)"/>
<path d="M0 0 C0.33 0 0.66 0 1 0 C1.29036649 3.38115651 1.44908891 6.62919149 1 10 C-1.5 12.625 -1.5 12.625 -4 14 C-4.75 12.25 -4.75 12.25 -5 10 C-3.66666667 8.66666667 -2.33333333 7.33333333 -1 6 C-0.19684346 2.85518209 -0.19684346 2.85518209 0 0 Z " fill="#FFA606" transform="translate(34,8)"/>
<path d="M0 0 C0.66 0 1.32 0 2 0 C3.52491998 3.04983996 3.23562548 5.6423369 3 9 C2.01 9.99 1.02 10.98 0 12 C0 8.04 0 4.08 0 0 Z " fill="#FF5B00" transform="translate(16,26)"/>
<path d="M0 0 C3.7952131 1.49097658 5.61042731 3.75700849 8 7 C6.68 7.33 5.36 7.66 4 8 C0 3.375 0 3.375 0 0 Z " fill="#FF8E18" transform="translate(20,28)"/>
<path d="M0 0 C1.51953125 1.08203125 1.51953125 1.08203125 3 3 C3.07421875 6.13671875 3.07421875 6.13671875 2.6875 9.6875 C2.50767578 11.45673828 2.50767578 11.45673828 2.32421875 13.26171875 C2.21722656 14.16535156 2.11023438 15.06898437 2 16 C1.67 16 1.34 16 1 16 C0.14701624 12.32612505 -0.10789471 8.9552607 -0.0625 5.1875 C-0.05347656 4.21167969 -0.04445313 3.23585938 -0.03515625 2.23046875 C-0.02355469 1.49441406 -0.01195312 0.75835938 0 0 Z " fill="#FF8802" transform="translate(14,22)"/>
<path d="M0 0 C2 2 2 2 2.1953125 4.3828125 C2.17210937 5.28773437 2.14890625 6.19265625 2.125 7.125 C2.10695313 8.03507812 2.08890625 8.94515625 2.0703125 9.8828125 C2.04710937 10.58148438 2.02390625 11.28015625 2 12 C1.67 12 1.34 12 1 12 C0.67 9.69 0.34 7.38 0 5 C-0.99 5.33 -1.98 5.66 -3 6 C-2.42655063 3.13275314 -2.1385485 2.1385485 0 0 Z " fill="#FF7200" transform="translate(33,21)"/>
<path d="M0 0 C6.4 0.36923077 6.4 0.36923077 9.4375 3.5625 C9.953125 4.366875 10.46875 5.17125 11 6 C10.67 6.66 10.34 7.32 10 8 C8.51714758 7.04737966 7.03881799 6.08771595 5.5625 5.125 C4.73878906 4.59132813 3.91507813 4.05765625 3.06640625 3.5078125 C1 2 1 2 0 0 Z " fill="#FFB22D" transform="translate(13,17)"/>
<path d="M0 0 C0.33 0 0.66 0 1 0 C1 2.31 1 4.62 1 7 C1.66 7 2.32 7 3 7 C3.66 8.32 4.32 9.64 5 11 C4.01 11.33 3.02 11.66 2 12 C-0.13586678 8.79619983 -0.23132175 7.98060033 -0.125 4.3125 C-0.10695313 3.50425781 -0.08890625 2.69601563 -0.0703125 1.86328125 C-0.04710938 1.24839844 -0.02390625 0.63351563 0 0 Z " fill="#FF901B" transform="translate(18,6)"/>
<path d="M0 0 C1.875 0.3125 1.875 0.3125 4 1 C4.66 1.99 5.32 2.98 6 4 C4.125 4.625 4.125 4.625 2 5 C1.34 4.34 0.68 3.68 0 3 C0 2.01 0 1.02 0 0 Z " fill="#FF690B" transform="translate(21,17)"/>
<path d="M0 0 C1.32 1.65 2.64 3.3 4 5 C3.01 6.485 3.01 6.485 2 8 C1.34 7.67 0.68 7.34 0 7 C0 4.69 0 2.38 0 0 Z " fill="#FFC33D" transform="translate(19,6)"/>
<path d="M0 0 C0.99 0.33 1.98 0.66 3 1 C3 2.65 3 4.3 3 6 C1.68 5.34 0.36 4.68 -1 4 C-0.67 2.68 -0.34 1.36 0 0 Z " fill="#FFAE2C" transform="translate(22,11)"/>
</svg>
