<svg width="171" height="44" viewBox="0 0 171 44" fill="none" xmlns="http://www.w3.org/2000/svg">
<path d="M50.5181 7.34375V27.8303L38.2261 17.0826V27.9002H33.896V7.45239L46.1259 18.2622V7.34375H50.5181Z" fill="#000177"/>
<path d="M69.8408 24.1055V27.9002H54.7629V7.34375H69.8408V11.1307H59.0931V15.7324H67.0471V19.4417H59.0931V24.0978H69.8408V24.1055Z" fill="#000177"/>
<path d="M81.6205 28.1872C80.2378 28.1971 78.8684 27.9169 77.6007 27.3646C76.3705 26.8312 75.2537 26.0673 74.3105 25.1142C72.3598 23.1329 71.2718 20.4605 71.284 17.6801C71.2739 14.9023 72.3617 12.2331 74.3105 10.2537C75.2537 9.30061 76.3705 8.53674 77.6007 8.00326C78.8714 7.46064 80.2388 7.18091 81.6205 7.18091C83.0021 7.18091 84.3695 7.46064 85.6402 8.00326C86.8693 8.53874 87.9858 9.30236 88.9304 10.2537C90.8792 12.2331 91.967 14.9023 91.9569 17.6801C91.9691 20.4605 90.8811 23.1329 88.9304 25.1142C87.9858 26.0655 86.8693 26.8292 85.6402 27.3646C84.3725 27.9169 83.0031 28.1971 81.6205 28.1872ZM81.6205 11.5108C80.819 11.5028 80.0251 11.6669 79.2924 11.9919C78.5861 12.3078 77.9481 12.7586 77.4145 13.3189C76.871 13.8937 76.4394 14.5647 76.1418 15.2977C75.521 16.8333 75.521 18.5501 76.1418 20.0857C76.4416 20.8106 76.8731 21.4736 77.4145 22.0412C77.9457 22.6064 78.5841 23.0601 79.2924 23.376C80.0193 23.6935 80.804 23.8573 81.5972 23.8573C82.3904 23.8573 83.175 23.6935 83.9019 23.376C84.6092 23.0581 85.2472 22.6047 85.7799 22.0412C86.3186 21.4715 86.7498 20.809 87.0525 20.0857C87.6734 18.5501 87.6734 16.8333 87.0525 15.2977C86.752 14.5663 86.3207 13.8958 85.7799 13.3189C85.2448 12.7602 84.6072 12.3097 83.9019 11.9919C83.1836 11.6733 82.4063 11.5094 81.6205 11.5108Z" fill="#000177"/>
<path d="M103.209 17.6569L111.745 27.9002H106.561L100.64 20.7376L98.6615 23.1277V27.9002H94.6729V7.34375H98.646V16.9119L106.585 7.34375H111.745L103.209 17.6569Z" fill="#000177"/>
<path d="M127.025 27.9003L123.013 21.6147C122.586 21.6147 122.12 21.6147 121.608 21.6147H118.613V27.9003H114.282V7.3439H123.99C124.903 7.33783 125.808 7.51694 126.649 7.8704C127.491 8.22386 128.252 8.74432 128.887 9.40032C129.517 10.0575 130.019 10.8258 130.369 11.6663C130.729 12.548 130.911 13.4921 130.905 14.4444C130.945 15.6612 130.618 16.8619 129.966 17.8898C129.308 18.8688 128.458 19.7033 127.467 20.342L132.464 27.9003H127.025ZM118.613 17.8122H120.871H122.609C123.057 17.8204 123.505 17.8022 123.952 17.7579C124.321 17.7193 124.678 17.605 125.001 17.4221C125.324 17.2392 125.606 16.9916 125.829 16.6948C126.333 16.0258 126.591 15.2036 126.559 14.3668C126.604 13.5662 126.344 12.7783 125.829 12.1629C125.341 11.6233 124.674 11.2787 123.952 11.1929C123.633 11.1929 123.176 11.1386 122.586 11.1308C121.996 11.1231 121.398 11.1308 120.809 11.1308H118.582L118.613 17.8122Z" fill="#000177"/>
<path d="M150.049 24.1055V27.9002H134.94V7.34375H150.049V11.1307H139.27V15.7324H147.224V19.4417H139.27V24.0978H150.049V24.1055Z" fill="#000177"/>
<path d="M161.635 7.25826C162.91 7.39687 164.15 7.77048 165.29 8.36019C166.4 8.9261 167.397 9.69158 168.231 10.6184C169.072 11.5545 169.742 12.6315 170.209 13.8C170.695 15.0089 170.942 16.2999 170.939 17.6024C170.949 18.8883 170.709 20.164 170.233 21.3583C169.783 22.5021 169.128 23.554 168.3 24.4623C167.463 25.3794 166.47 26.1412 165.367 26.7128C164.199 27.3176 162.937 27.7192 161.635 27.9001C160.88 27.9979 160.121 28.0523 159.361 28.063C158.484 28.063 157.63 28.063 156.808 28.063C155.853 28.063 154.876 27.9854 153.875 27.9311V7.2893C154.914 7.23498 155.931 7.19618 156.916 7.18066C157.755 7.18066 158.616 7.18066 159.485 7.18066C160.354 7.18066 161.068 7.20394 161.635 7.25826ZM161.635 23.7174C162.309 23.6081 162.956 23.3654 163.536 23.0035C164.116 22.6427 164.624 22.1769 165.034 21.6299C165.452 21.0649 165.781 20.4395 166.011 19.7753C166.248 19.0806 166.368 18.3518 166.368 17.618C166.371 16.8953 166.245 16.1779 165.996 15.4995C165.757 14.8386 165.414 14.2203 164.979 13.6681C164.542 13.1357 164.017 12.6817 163.427 12.3256C162.867 11.9771 162.245 11.7375 161.596 11.6194C161.278 11.5619 160.956 11.5307 160.634 11.5263C160.253 11.5263 159.858 11.5263 159.508 11.5263C159.159 11.5263 158.655 11.5729 158.212 11.6039V23.7174C158.6 23.7562 158.988 23.7795 159.4 23.8027C159.811 23.826 160.114 23.8027 160.502 23.8027C160.876 23.7977 161.249 23.7692 161.619 23.7174H161.635Z" fill="#000177"/>
<path d="M34.385 36.5454H36.1931C38.1719 36.5454 39.2971 37.4533 39.2971 39.114C39.2971 40.7747 38.1874 41.6903 36.1931 41.6903H35.5025V43.7235H34.385V36.5454ZM36.1465 40.7048C37.5589 40.7048 38.1331 40.2082 38.1331 39.1528C38.1331 38.0974 37.5511 37.6008 36.1465 37.6008H35.5025V40.7048H36.1465Z" fill="#FF9700"/>
<path d="M44.9465 40.1379C44.9419 39.4052 45.1548 38.6876 45.5584 38.0759C45.962 37.4643 46.538 36.9863 47.2135 36.7023C47.889 36.4184 48.6336 36.3413 49.3529 36.4808C50.0723 36.6204 50.734 36.9703 51.2543 37.4863C51.7746 38.0022 52.1301 38.661 52.2757 39.3791C52.4213 40.0973 52.3505 40.8425 52.0722 41.5204C51.7939 42.1982 51.3207 42.7782 50.7125 43.1869C50.1043 43.5956 49.3885 43.8146 48.6558 43.8162C48.1681 43.8277 47.6832 43.7407 47.23 43.5603C46.7768 43.38 46.3646 43.11 46.0183 42.7665C45.6719 42.4231 45.3984 42.0132 45.2143 41.5615C45.0301 41.1098 44.939 40.6256 44.9465 40.1379ZM51.2088 40.1379C51.186 39.6367 51.0165 39.1532 50.7213 38.7475C50.426 38.3418 50.0181 38.0318 49.5482 37.8559C49.0783 37.6801 48.5671 37.6461 48.078 37.7583C47.589 37.8705 47.1437 38.1239 46.7974 38.487C46.4512 38.8501 46.2192 39.307 46.1303 39.8008C46.0415 40.2946 46.0996 40.8036 46.2976 41.2647C46.4955 41.7257 46.8246 42.1184 47.2438 42.3941C47.6631 42.6697 48.154 42.8161 48.6558 42.8151C49.0031 42.8189 49.3474 42.7512 49.6675 42.6165C49.9876 42.4817 50.2766 42.2827 50.5167 42.0317C50.7567 41.7808 50.9427 41.4832 51.0631 41.1574C51.1835 40.8317 51.2357 40.4847 51.2166 40.1379H51.2088Z" fill="#FF9700"/>
<path d="M57.4634 36.5453H58.6351L59.9078 40.371C60.0397 40.7668 60.1794 41.3953 60.1794 41.3953C60.1794 41.3953 60.3579 40.7823 60.5286 40.371L62.2436 36.491L63.9663 40.371C64.0992 40.7058 64.2132 41.0478 64.3078 41.3953C64.3078 41.3953 64.4552 40.7668 64.5871 40.371L65.8598 36.5453H66.9462L64.463 43.801H64.3233L62.5462 39.5407C62.3988 39.1915 62.2436 38.6638 62.2436 38.6638C62.2436 38.6638 62.0806 39.1915 61.9332 39.5407L60.1018 43.8165H59.9699L57.4634 36.5453Z" fill="#FF9700"/>
<path d="M72.7507 36.5454H77.3059V37.5309H73.8682V39.7891H76.7239V40.7436H73.8682V42.7457H77.4533V43.7235H72.7507V36.5454Z" fill="#FF9700"/>
<path d="M88.7752 43.7235H87.487L86.2221 41.6205H84.6701V43.7235H83.5449V36.5454H85.3608C87.3396 36.5454 88.4648 37.4533 88.4648 39.0985C88.4911 39.5372 88.3901 39.9742 88.174 40.3569C87.9579 40.7396 87.6358 41.0518 87.2465 41.2558L88.7752 43.7235ZM85.3608 40.666C86.7886 40.666 87.3551 40.1616 87.3551 39.114C87.3551 38.0664 86.7653 37.562 85.3608 37.562H84.7322V40.666H85.3608Z" fill="#FF9700"/>
<path d="M103.279 37.5309H101.393V36.5454H106.313V37.5309H104.427V43.739H103.318L103.279 37.5309Z" fill="#FF9700"/>
<path d="M111.613 40.1379C111.609 39.4052 111.822 38.6876 112.225 38.0759C112.629 37.4643 113.205 36.9863 113.88 36.7023C114.556 36.4184 115.3 36.3413 116.02 36.4808C116.739 36.6204 117.401 36.9703 117.921 37.4863C118.441 38.0022 118.797 38.661 118.942 39.3791C119.088 40.0973 119.017 40.8425 118.739 41.5204C118.461 42.1982 117.987 42.7782 117.379 43.1869C116.771 43.5956 116.055 43.8146 115.323 43.8162C114.835 43.8277 114.35 43.7407 113.897 43.5603C113.444 43.38 113.031 43.11 112.685 42.7665C112.339 42.4231 112.065 42.0132 111.881 41.5615C111.697 41.1098 111.606 40.6256 111.613 40.1379ZM117.876 40.1379C117.853 39.6367 117.683 39.1532 117.388 38.7475C117.093 38.3418 116.685 38.0318 116.215 37.8559C115.745 37.6801 115.234 37.6461 114.745 37.7583C114.256 37.8705 113.81 38.1239 113.464 38.487C113.118 38.8501 112.886 39.307 112.797 39.8008C112.708 40.2946 112.766 40.8036 112.964 41.2647C113.162 41.7257 113.491 42.1184 113.911 42.3941C114.33 42.6697 114.821 42.8161 115.323 42.8151C115.669 42.8178 116.013 42.7494 116.332 42.6142C116.651 42.4789 116.939 42.2798 117.178 42.0289C117.418 41.778 117.603 41.4808 117.723 41.1556C117.843 40.8304 117.895 40.484 117.876 40.1379Z" fill="#FF9700"/>
<path d="M134.288 41.0923L131.564 36.5371H132.798L134.42 39.5403C134.551 39.7765 134.696 40.0045 134.855 40.2231C135.02 40.009 135.165 39.7804 135.289 39.5403L136.841 36.5837H137.99L135.382 41.0768V43.7617H134.265L134.288 41.0923Z" fill="#FF9700"/>
<path d="M143.259 40.1382C143.259 37.9964 144.725 36.4521 146.557 36.4521C148.388 36.4521 149.847 38.0042 149.847 40.1382C149.847 42.2722 148.38 43.8165 146.557 43.8165C144.733 43.8165 143.259 42.28 143.259 40.1382ZM148.831 40.1382C148.831 38.5862 147.892 37.4532 146.557 37.4532C145.222 37.4532 144.275 38.6094 144.275 40.1382C144.275 41.6669 145.222 42.8154 146.557 42.8154C147.892 42.8154 148.831 41.6669 148.831 40.1382Z" fill="#FF9700"/>
<path d="M155.659 41.2015V36.5454H156.754V41.1394C156.783 41.5813 156.979 41.9955 157.303 42.2981C157.626 42.6007 158.053 42.7691 158.496 42.7691C158.939 42.7691 159.365 42.6007 159.689 42.2981C160.012 41.9955 160.208 41.5813 160.238 41.1394V36.5454H161.41V41.2015C161.41 42.9475 160.106 43.8166 158.554 43.8166C157.002 43.8166 155.659 42.9475 155.659 41.2015Z" fill="#FF9700"/>
<path d="M15.1554 15.0802L6.61152 5.01538L6.60376 8.23581L15.1554 18.3705V15.0802Z" fill="url(#paint0_linear_437_8540)"/>
<path d="M15.1553 21.0793V18.371L6.60371 8.23633L6.59595 10.8903L15.1553 21.0793Z" fill="url(#paint1_linear_437_8540)"/>
<path d="M0.256248 4.23191V27.2095C1.34113 27.7987 2.61167 27.946 3.8026 27.6208C5.67278 27.1241 6.79799 25.704 6.79799 24.5167V2.05909C6.79799 1.28308 6.59623 0.941641 5.86678 0.786439C4.56734 0.67695 3.27276 1.04683 2.22731 1.82629C1.36369 2.31713 0.684909 3.07769 0.295048 3.99135C0.266547 4.06824 0.253366 4.14996 0.256248 4.23191Z" fill="url(#paint2_linear_437_8540)"/>
<path d="M14.9924 10.0522V34.4343C16.0788 35.0189 17.3475 35.166 18.5388 34.8456C20.409 34.349 21.5342 32.9289 21.5342 31.7416V8.01905C21.5342 7.24305 21.3324 6.9016 20.603 6.7464C19.3035 6.63691 18.0089 7.00679 16.9635 7.78625C16.05 8.27326 15.3482 9.08005 14.9924 10.0522Z" fill="url(#paint3_linear_437_8540)"/>
<path d="M16.9635 7.78628C16.0383 8.2883 15.335 9.11899 14.9924 10.1143V34.4344C16.0436 35.0038 17.2691 35.1615 18.4301 34.8767V7.04907C17.9161 7.24128 17.4244 7.48845 16.9635 7.78628Z" fill="url(#paint4_linear_437_8540)"/>
<path d="M2.22719 1.82604C1.36865 2.31377 0.692893 3.06854 0.302693 3.97558C0.271094 4.06261 0.255326 4.1546 0.256133 4.24718V27.2092C1.28326 27.7653 2.47779 27.9281 3.61625 27.6671V1.11987C3.13018 1.30688 2.6647 1.54352 2.22719 1.82604Z" fill="url(#paint5_linear_437_8540)"/>
<path d="M21.6506 22.9182V26.4879C21.3624 26.9392 20.9749 27.3188 20.5176 27.5976C19.8157 28.037 19 28.2603 18.1721 28.2396C17.3442 28.2189 16.5407 27.9551 15.8616 27.4812C14.5346 26.5112 11.9816 23.6011 6.5495 17.137C1.62962 11.1928 0.302643 9.40019 0 8.97339V6.50569C0 5.396 0.256082 5.396 0.256082 5.396V5.4736C0.256082 5.6288 2.5841 8.57763 6.26238 13.0629C9.94066 17.5483 12.4704 20.3962 13.8828 21.9715C15.2951 23.5468 16.4902 24.4858 18.0034 24.6255C18.5798 24.6854 19.1621 24.6068 19.702 24.3962C20.2419 24.1857 20.7238 23.8492 21.1074 23.4149C21.2611 23.2249 21.3986 23.0224 21.5187 22.8096V22.701C21.573 22.6854 21.6506 22.7553 21.6506 22.9182Z" fill="url(#paint6_linear_437_8540)"/>
<path d="M6.27014 19.3641C9.08705 22.8174 10.4606 24.4237 13.65 27.9002C15.3494 29.7704 16.3738 30.2282 18.1508 30.3369C18.7924 30.3677 19.4323 30.2483 20.0197 29.9883C20.6071 29.7283 21.1256 29.3348 21.5342 28.8392C21.5342 28.8392 21.6506 28.7693 21.6506 28.5133V26.4879C21.3624 26.9392 20.9749 27.3188 20.5176 27.5976C19.8164 28.039 19.0004 28.2634 18.172 28.2427C17.3437 28.222 16.5399 27.957 15.8616 27.4812C14.5346 26.5112 11.9816 23.6011 6.5495 17.137C1.62962 11.185 0.302643 9.40019 0 8.97339V11.6041C0.000872926 11.6483 0.0143319 11.6914 0.0388004 11.7282C0.318163 12.0619 1.99434 14.1649 6.27014 19.3641Z" fill="url(#paint7_linear_437_8540)"/>
<defs>
<linearGradient id="paint0_linear_437_8540" x1="-5.33899" y1="13.1712" x2="21.8601" y2="10.6958" gradientUnits="userSpaceOnUse">
<stop offset="0.19" stop-color="#FFEAA9"/>
<stop offset="0.44" stop-color="#FFD348"/>
<stop offset="0.68" stop-color="#FF9B1C"/>
<stop offset="1" stop-color="#FF4A00"/>
</linearGradient>
<linearGradient id="paint1_linear_437_8540" x1="1.00869" y1="-4.22635" x2="11.8495" y2="16.5086" gradientUnits="userSpaceOnUse">
<stop offset="0.19" stop-color="#FFEAA9"/>
<stop offset="0.44" stop-color="#FFD348"/>
<stop offset="0.68" stop-color="#FF9B1C"/>
<stop offset="1" stop-color="#FF4A00"/>
</linearGradient>
<linearGradient id="paint2_linear_437_8540" x1="2.07987" y1="14.2114" x2="6.85231" y2="14.3433" gradientUnits="userSpaceOnUse">
<stop offset="0.32" stop-color="#FFA200"/>
<stop offset="0.51" stop-color="#FF8E00"/>
<stop offset="0.88" stop-color="#FF5B00"/>
<stop offset="1" stop-color="#FF4A00"/>
</linearGradient>
<linearGradient id="paint3_linear_437_8540" x1="15.7452" y1="20.9473" x2="22.1084" y2="20.7533" gradientUnits="userSpaceOnUse">
<stop offset="0.43" stop-color="#FFA200"/>
<stop offset="0.55" stop-color="#FF9200"/>
<stop offset="0.77" stop-color="#FF6800"/>
<stop offset="0.91" stop-color="#FF4A00"/>
</linearGradient>
<linearGradient id="paint4_linear_437_8540" x1="10.7011" y1="12.3259" x2="21.4954" y2="27.4425" gradientUnits="userSpaceOnUse">
<stop offset="0.09" stop-color="#FFB816"/>
<stop offset="0.29" stop-color="#FFA200"/>
<stop offset="0.34" stop-color="#FF8D00"/>
<stop offset="0.44" stop-color="#FF7000"/>
<stop offset="0.54" stop-color="#FF5B00"/>
<stop offset="0.64" stop-color="#FF4E00"/>
<stop offset="0.73" stop-color="#FF4A00"/>
<stop offset="1" stop-color="#F03B00"/>
</linearGradient>
<linearGradient id="paint5_linear_437_8540" x1="1.93231" y1="33.0603" x2="1.93231" y2="1.43028" gradientUnits="userSpaceOnUse">
<stop stop-color="#FFA200"/>
<stop offset="0.02" stop-color="#FFA000"/>
<stop offset="0.31" stop-color="#FF7B00"/>
<stop offset="0.58" stop-color="#FF6000"/>
<stop offset="0.82" stop-color="#FF5000"/>
<stop offset="1" stop-color="#FF4A00"/>
</linearGradient>
<linearGradient id="paint6_linear_437_8540" x1="-0.628567" y1="47.8126" x2="16.9402" y2="-0.695663" gradientUnits="userSpaceOnUse">
<stop offset="0.01" stop-color="#FFD348"/>
<stop offset="0.28" stop-color="#FF4A00"/>
<stop offset="0.57" stop-color="#FFD348"/>
<stop offset="0.68" stop-color="#FF9B1C"/>
<stop offset="1" stop-color="#FF4A00"/>
</linearGradient>
<linearGradient id="paint7_linear_437_8540" x1="-2.28146" y1="-0.943986" x2="21.5497" y2="35.443" gradientUnits="userSpaceOnUse">
<stop stop-color="#FFEAA9"/>
<stop offset="0.15" stop-color="#FF4A00"/>
<stop offset="0.37" stop-color="#FFD348"/>
<stop offset="0.58" stop-color="#FF9B1C"/>
<stop offset="0.9" stop-color="#FF4A00"/>
</linearGradient>
</defs>
</svg>
